<svg width="209" height="209" viewBox="0 0 209 209" fill="none" xmlns="http://www.w3.org/2000/svg">
<path fill-rule="evenodd" clip-rule="evenodd" d="M159.096 151.214C159.096 134.049 145.128 120.084 127.966 120.084C110.798 120.084 96.8358 134.049 96.8358 151.214C96.8358 168.379 110.798 182.344 127.966 182.344C145.128 182.344 159.096 168.379 159.096 151.214ZM167.224 160.313C163.185 162.994 161.2 167.792 162.16 172.537C163.708 180.186 156.958 186.959 149.291 185.406C144.543 184.448 139.746 186.436 137.067 190.473C132.746 196.981 123.188 196.979 118.865 190.473C116.154 186.391 111.332 184.458 106.643 185.406C98.979 186.957 92.226 180.196 93.7692 172.537C94.7297 167.792 92.7446 162.994 88.7101 160.313C82.1942 155.992 82.1992 146.437 88.7101 142.116C92.7446 139.434 94.7297 134.637 93.7692 129.891C92.226 122.232 98.979 115.472 106.643 117.02C111.391 117.98 116.189 115.993 118.865 111.956C123.183 105.447 132.746 105.447 137.067 111.956C139.746 115.993 144.543 117.98 149.291 117.02C156.943 115.474 163.708 122.232 162.16 129.891C161.2 134.637 163.185 139.434 167.224 142.116C173.73 146.437 173.735 155.994 167.224 160.313ZM145.731 139.585C146.803 140.802 146.684 142.654 145.469 143.72L123.44 163.108C122.23 164.167 120.381 164.063 119.312 162.851L110.206 152.57C109.132 151.357 109.243 149.506 110.455 148.434C111.668 147.36 113.519 147.471 114.593 148.683L121.761 156.777L141.593 139.321C142.813 138.251 144.662 138.37 145.731 139.585ZM153.234 151.214C153.234 165.145 141.896 176.483 127.966 176.483C114.035 176.483 102.7 165.145 102.7 151.214C102.7 137.281 114.035 125.946 127.966 125.946C141.896 125.946 153.234 137.281 153.234 151.214ZM85.4707 137.229C81.5571 139.824 78.9622 143.881 78.2017 148.417C55.3874 146.706 37.099 127.474 36.899 104.317L36.894 64.2064C36.894 60.5769 39.8495 57.6263 43.4766 57.6263C47.1061 57.6263 50.0567 60.5769 50.0567 64.2064V86.4231C50.0567 87.8132 50.99 88.949 52.3652 89.2872C59.9675 91.1835 65.2712 97.9808 65.2712 105.823C65.2712 107.442 66.5872 108.753 68.2045 108.753C69.8217 108.753 71.1353 107.442 71.1353 105.823C71.1353 96.0377 64.9848 87.4601 55.9183 84.243V31.6393C55.9183 28.0122 58.8688 25.0591 62.4983 25.0591C66.1255 25.0591 69.076 28.0122 69.076 31.6393V71.5865C69.076 73.2037 70.3895 74.5148 72.0068 74.5148C73.629 74.5148 74.9376 73.2037 74.9376 71.5865V20.2272C74.9376 16.5977 77.8931 13.647 81.5202 13.647C85.1497 13.647 88.1002 16.5977 88.1002 20.2272V69.6828C88.1002 71.3025 89.4113 72.6136 91.0286 72.6136C92.6483 72.6136 93.9618 71.3025 93.9618 69.6828V29.738C93.9618 26.111 96.9099 23.1555 100.542 23.1555C104.169 23.1555 107.117 26.111 107.117 29.738V84.8998C107.117 86.5169 108.433 87.828 110.05 87.828C111.67 87.828 112.981 86.5169 112.981 84.8998V44.955C112.981 41.3254 115.934 38.3749 119.561 38.3749C123.191 38.3749 126.141 41.3254 126.141 44.955V101.312C121.218 101.847 116.764 104.524 113.981 108.714C112.608 110.786 110.24 111.768 107.801 111.277C96.0161 108.894 85.646 119.309 88.0261 131.052C88.52 133.489 87.5397 135.856 85.4707 137.229Z" fill="url(#paint0_linear_733_14584)"/>
<defs>
<linearGradient id="paint0_linear_733_14584" x1="104.5" y1="13.647" x2="104.5" y2="195.353" gradientUnits="userSpaceOnUse">
<stop stop-color="#F16161"/>
<stop offset="0.395833" stop-color="#E86580"/>
<stop offset="1" stop-color="#D76CB9"/>
</linearGradient>
</defs>
</svg>
