<svg width="206" height="209" viewBox="0 0 206 209" fill="none" xmlns="http://www.w3.org/2000/svg">
<path fill-rule="evenodd" clip-rule="evenodd" d="M175.817 30.1042C202.307 56.5816 202.307 99.5127 175.817 125.99C149.325 152.468 106.375 152.468 79.8851 125.99C53.395 99.5127 53.395 56.5816 79.8851 30.1042C106.375 3.62677 149.325 3.62472 175.817 30.1042ZM56.4885 136.233L13.5328 171.644C11.8907 173.286 11.1158 175.499 11.1896 177.742C11.3454 182.451 23.3974 194.495 28.1062 194.651C30.351 194.724 32.567 193.95 34.207 192.309L69.6351 149.374C73.5486 152.101 79.0118 151.722 82.4968 148.24L87.9621 142.778C77.8679 136.553 69.3133 128.002 63.0854 117.913L57.6201 123.376C54.1392 126.861 53.7599 132.32 56.4885 136.233ZM186.348 78.0471C186.348 45.7546 160.159 19.5784 127.851 19.5784C95.543 19.5784 69.3543 45.7546 69.3543 78.0471C69.3543 110.34 95.543 136.516 127.851 136.516C160.159 136.516 186.348 110.34 186.348 78.0471Z" fill="url(#paint0_linear_733_14597)"/>
<defs>
<linearGradient id="paint0_linear_733_14597" x1="103.435" y1="10.2454" x2="103.435" y2="194.656" gradientUnits="userSpaceOnUse">
<stop stop-color="#F16161"/>
<stop offset="0.395833" stop-color="#E86580"/>
<stop offset="1" stop-color="#D76CB9"/>
</linearGradient>
</defs>
</svg>
