<svg width="229" height="239" viewBox="0 0 229 239" fill="none" xmlns="http://www.w3.org/2000/svg">
<path d="M56.2636 42.8954V23.8848C56.2636 20.6406 53.6578 17.9421 50.3248 17.9421C47.0827 17.9421 44.386 20.6406 44.386 23.8848V42.8954C29.6602 45.6546 18.5098 58.6618 18.5098 74.1857C18.5098 89.7095 29.6602 102.777 44.386 105.567V212.748C44.386 215.992 47.0827 218.691 50.3248 218.691C53.6578 218.691 56.2636 215.992 56.2636 212.748V105.567C70.9894 102.808 82.2307 89.7095 82.2307 74.1857C82.2307 58.6618 70.9894 45.6849 56.2636 42.8954ZM56.2636 93.3782C54.4456 93.924 52.3852 94.2575 50.3248 94.2575C48.2644 94.2575 46.2949 93.9543 44.386 93.3782C36.2959 90.8314 30.3874 83.2514 30.3874 74.216C30.3874 65.2716 36.3262 57.6613 44.386 55.1144C46.2949 54.5686 48.2644 54.2351 50.3248 54.2351C52.3852 54.2351 54.4456 54.5383 56.2636 55.1144C64.4143 57.6613 70.3531 65.2413 70.3531 74.216C70.3531 83.221 64.4143 90.8314 56.2636 93.3782Z" fill="url(#paint0_linear_1230_3346)"/>
<path d="M121.348 131.46V23.8848C121.348 20.6406 118.651 17.9421 115.409 17.9421C112.167 17.9421 109.47 20.6406 109.47 23.8848V131.46C94.7445 134.219 83.5032 147.227 83.5032 162.75C83.5032 178.274 94.7445 191.342 109.47 194.132V212.748C109.47 215.992 112.167 218.691 115.409 218.691C118.651 218.691 121.348 215.992 121.348 212.748V194.132C136.074 191.372 147.315 178.274 147.315 162.75C147.315 147.227 136.074 134.25 121.348 131.46ZM121.348 181.943C119.53 182.489 117.469 182.822 115.409 182.822C113.349 182.822 111.288 182.519 109.47 181.943C101.32 179.396 95.3808 171.816 95.3808 162.781C95.3808 153.836 101.32 146.226 109.47 143.679C111.288 143.133 113.349 142.8 115.409 142.8C117.469 142.8 119.53 143.103 121.348 143.679C129.499 146.226 135.437 153.806 135.437 162.781C135.437 171.786 129.499 179.396 121.348 181.943Z" fill="url(#paint1_linear_1230_3346)"/>
<path d="M186.402 77.5209V23.8848C186.402 20.6406 183.705 17.9421 180.463 17.9421C177.13 17.9421 174.524 20.6406 174.524 23.8848V77.5209C159.799 80.28 148.557 93.3782 148.557 108.902C148.557 124.426 159.799 137.494 174.524 140.283V212.778C174.524 216.023 177.13 218.721 180.463 218.721C183.705 218.721 186.402 216.023 186.402 212.778V140.253C201.128 137.494 212.278 124.396 212.278 108.872C212.278 93.3479 201.128 80.3103 186.402 77.5209ZM186.402 127.973C184.493 128.61 182.524 128.913 180.463 128.913C178.403 128.913 176.342 128.61 174.524 127.973C166.374 125.426 160.435 117.846 160.435 108.872C160.435 99.8364 166.374 92.2261 174.524 89.7095C176.342 89.1638 178.403 88.8302 180.463 88.8302C182.524 88.8302 184.493 89.1334 186.402 89.7095C194.492 92.2564 200.401 99.8364 200.401 108.872C200.431 117.846 194.492 125.457 186.402 127.973Z" fill="url(#paint2_linear_1230_3346)"/>
<defs>
<linearGradient id="paint0_linear_1230_3346" x1="50.3702" y1="17.9421" x2="50.3702" y2="218.691" gradientUnits="userSpaceOnUse">
<stop stop-color="#F96317"/>
<stop offset="0.395833" stop-color="#FC7B1E"/>
<stop offset="1" stop-color="#F92517"/>
</linearGradient>
<linearGradient id="paint1_linear_1230_3346" x1="115.409" y1="17.9421" x2="115.409" y2="218.691" gradientUnits="userSpaceOnUse">
<stop stop-color="#F96317"/>
<stop offset="0.395833" stop-color="#FC7B1E"/>
<stop offset="1" stop-color="#F92517"/>
</linearGradient>
<linearGradient id="paint2_linear_1230_3346" x1="180.418" y1="17.9421" x2="180.418" y2="218.721" gradientUnits="userSpaceOnUse">
<stop stop-color="#F96317"/>
<stop offset="0.395833" stop-color="#FC7B1E"/>
<stop offset="1" stop-color="#F92517"/>
</linearGradient>
</defs>
</svg>
