<svg width="315" height="316" viewBox="0 0 315 316" fill="none" xmlns="http://www.w3.org/2000/svg">
<path d="M201.432 33.0255C207.903 32.6306 213.989 36.8521 215.735 43.3686L224.317 75.2784H90.4131C78.8314 75.2784 69.2877 84.8226 69.2877 96.4048V249.791L27.4769 93.7639C25.4815 86.3164 29.9323 78.7043 37.3795 76.7087C92.4515 64.714 201.255 33.1174 201.432 33.0255ZM259.416 82.3204C267.219 82.3204 273.5 88.6021 273.5 96.4048V232.076C254.434 214.67 234.444 197.381 218.156 182.781C214.887 179.691 210.879 177.964 206.713 177.939C202.391 177.904 198.042 179.569 194.61 183.001L185.038 192.574C172.631 182.165 160.074 171.921 147.738 161.434C144.172 159.172 140.031 156.892 136.295 156.813C131.973 156.777 127.624 158.443 124.192 161.875L76.3295 209.739V96.4048C76.3295 88.6021 82.6108 82.3204 90.4131 82.3204H259.416ZM217.166 103.557C203.637 103.557 192.519 114.675 192.519 128.204C192.519 141.734 203.637 152.852 217.166 152.852C230.694 152.852 241.812 141.734 241.812 128.204C241.812 114.675 230.694 103.557 217.166 103.557ZM138.275 171.888C150.554 182.013 162.864 192.281 175.135 202.476L138.275 239.338L148.178 249.351L204.512 193.014C205.806 191.72 207.83 192.111 208.693 193.014C230.327 212.204 251.918 231.591 273.5 250.891V265.416C273.5 273.218 267.219 279.5 259.416 279.5H90.4131C82.6108 279.5 76.3295 273.218 76.3295 265.416V229.655L134.094 171.887C135.488 170.789 136.835 170.815 138.275 171.888Z" fill="url(#paint0_linear_1230_3345)"/>
<defs>
<linearGradient id="paint0_linear_1230_3345" x1="150.25" y1="33" x2="150.25" y2="279.5" gradientUnits="userSpaceOnUse">
<stop stop-color="#F96317"/>
<stop offset="0.395833" stop-color="#FC7B1E"/>
<stop offset="1" stop-color="#F92517"/>
</linearGradient>
</defs>
</svg>
