<svg width="215" height="209" viewBox="0 0 215 209" fill="none" xmlns="http://www.w3.org/2000/svg">
<path d="M170.645 127.325C170.645 141.86 158.802 153.684 144.25 153.684H115.587L80.297 177.612V153.684H49.1399C34.5813 153.684 22.7377 141.86 22.7377 127.325V82.3065C22.7377 67.772 34.5813 55.9481 49.1399 55.9481H77.3746V48.751H49.1399C30.6089 48.751 15.5286 63.8063 15.5286 82.3065V127.325C15.5286 145.826 30.6089 160.881 49.1399 160.881H73.0812V191.205L117.807 160.881H144.25C162.781 160.881 177.854 145.826 177.854 127.325V106.255H170.645V127.325Z" fill="url(#paint0_linear_733_14589)"/>
<path d="M109.174 87.3939H50.7651V94.5911H109.174V87.3939Z" fill="url(#paint1_linear_733_14589)"/>
<path d="M142.611 115.048H50.7651V122.245H142.611V115.048Z" fill="url(#paint2_linear_733_14589)"/>
<path d="M173.193 22.4393H116.283C101.369 22.4393 89.1982 34.5904 89.1982 49.4787C89.1982 64.3671 101.369 76.5181 116.283 76.5181H138.753L168.512 98.0161V76.5181H173.193C188.173 76.5181 200.344 64.4338 200.344 49.4787C200.344 34.5236 188.173 22.4393 173.193 22.4393ZM175.066 49.4787C175.066 52.8169 172.324 55.5542 168.98 55.5542C165.569 55.5542 162.828 52.8169 162.828 49.4787C162.828 46.1405 165.569 43.4032 168.98 43.4032C172.324 43.4032 175.066 46.1405 175.066 49.4787ZM144.771 55.5542C141.428 55.5542 138.686 52.8169 138.686 49.4787C138.686 46.1405 141.428 43.4032 144.771 43.4032C148.115 43.4032 150.857 46.1405 150.857 49.4787C150.857 52.8169 148.115 55.5542 144.771 55.5542ZM120.563 43.4032C123.973 43.4032 126.715 46.1405 126.715 49.4787C126.715 52.8169 123.973 55.5542 120.563 55.5542C117.219 55.5542 114.477 52.8169 114.477 49.4787C114.477 46.1405 117.219 43.4032 120.563 43.4032Z" fill="url(#paint3_linear_733_14589)"/>
<defs>
<linearGradient id="paint0_linear_733_14589" x1="96.6914" y1="48.751" x2="96.6914" y2="191.205" gradientUnits="userSpaceOnUse">
<stop stop-color="#F16161"/>
<stop offset="0.395833" stop-color="#E86580"/>
<stop offset="1" stop-color="#D76CB9"/>
</linearGradient>
<linearGradient id="paint1_linear_733_14589" x1="79.9694" y1="87.3939" x2="79.9694" y2="94.5911" gradientUnits="userSpaceOnUse">
<stop stop-color="#F16161"/>
<stop offset="0.395833" stop-color="#E86580"/>
<stop offset="1" stop-color="#D76CB9"/>
</linearGradient>
<linearGradient id="paint2_linear_733_14589" x1="96.6882" y1="115.048" x2="96.6882" y2="122.245" gradientUnits="userSpaceOnUse">
<stop stop-color="#F16161"/>
<stop offset="0.395833" stop-color="#E86580"/>
<stop offset="1" stop-color="#D76CB9"/>
</linearGradient>
<linearGradient id="paint3_linear_733_14589" x1="144.771" y1="22.4393" x2="144.771" y2="98.0161" gradientUnits="userSpaceOnUse">
<stop stop-color="#F16161"/>
<stop offset="0.395833" stop-color="#E86580"/>
<stop offset="1" stop-color="#D76CB9"/>
</linearGradient>
</defs>
</svg>
