<svg xmlns="http://www.w3.org/2000/svg" viewBox="0 0 42.5 36.36"><defs><style>.cls-1{fill:#f96317;}</style></defs><g id="Layer_2" data-name="Layer 2"><g id="Layer_1-2" data-name="Layer 1"><path class="cls-1" d="M23.41,15V35.68a.68.68,0,0,0,1.24.39c2.45-3.51,8.48-11,17.44-14.84a.68.68,0,0,0,.41-.62V.68A.68.68,0,0,0,41.62,0C38.56,1,28.35,5,23.48,14.71A.71.71,0,0,0,23.41,15Z"/><path class="cls-1" d="M19.1,15V35.68a.68.68,0,0,1-1.24.39c-2.45-3.51-8.48-11-17.45-14.84A.68.68,0,0,1,0,20.61V.68A.68.68,0,0,1,.89,0C4,1,14.15,5,19,14.71A.72.72,0,0,1,19.1,15Z"/></g></g></svg>