<svg xmlns="http://www.w3.org/2000/svg" viewBox="0 0 274.28 38.54"><defs><style>.cls-1{fill:#fff;}.cls-2{fill:#f96317;}</style></defs><g id="Layer_2" data-name="Layer 2"><g id="Layer_1-2" data-name="Layer 1"><path class="cls-1" d="M59.1,9.55,59.63,4h22.8L81.9,9.55l-8.35-.72-.19,15.84.57,12.48H67.21l.58-11.66L67.6,8.88Z"/><path class="cls-1" d="M84.18,35.35a6.54,6.54,0,0,1-1.8-4.85,6.63,6.63,0,0,1,2.78-5.28A10.53,10.53,0,0,1,91.93,23h3.26v-.81a4.25,4.25,0,0,0-1-3.22c-.64-.58-1.84-.86-3.6-.86a9.39,9.39,0,0,0-2.61.45A21.21,21.21,0,0,0,84.63,20l-1.39-3.79a24.21,24.21,0,0,1,5-2.6,14.25,14.25,0,0,1,4.87-1.15q7.53,0,7.54,7.3v9.41a13.49,13.49,0,0,0,1.68,6L97.26,37.3a27.3,27.3,0,0,1-1.78-4.13q-2.64,4-6.67,4A6.26,6.26,0,0,1,84.18,35.35Zm6.65-3.09a7.34,7.34,0,0,0,4.36-2V27.07a19.72,19.72,0,0,0-4.12-.57c-2,0-3,.89-3,2.68a3.21,3.21,0,0,0,.77,2.24A2.6,2.6,0,0,0,90.83,32.26Z"/><path class="cls-1" d="M111.9,0l-.63,24.67L111.8,36l-6.48,1.2.58-11.66L105.32,1.2Z"/><path class="cls-1" d="M124.91,32.26a6.88,6.88,0,0,0,2.92-.72,11,11,0,0,0,2.4-1.44l.87-.72,2.21,2.68a10.87,10.87,0,0,1-1.49,1.88,15.13,15.13,0,0,1-2,1.8A11.1,11.1,0,0,1,127,37.08a10.51,10.51,0,0,1-3.53.6,7.83,7.83,0,0,1-6.33-3,11.55,11.55,0,0,1-2.45-7.61,16.35,16.35,0,0,1,3.41-10.27q3.4-4.43,8-4.42a7.3,7.3,0,0,1,5.44,2,7.5,7.5,0,0,1,1.95,5.52,18.76,18.76,0,0,1-.72,4.8l-1,1-12,1.1Q120.63,32.26,124.91,32.26Zm0-14.88a4.47,4.47,0,0,0-3.56,1.7,7.61,7.61,0,0,0-1.68,4.34l8.16-1a14.17,14.17,0,0,0,.15-1.83C128,18.45,127,17.38,124.91,17.38Z"/><path class="cls-1" d="M164.46,31.15H165l2.25-8.25,4.61-19.16,5.42.87L172,23.66l-3.21,13.11-8.79.62-2.73-12.81-1.64-6.34-1.44,5.42L151,36.77l-8.64.62L139.5,24.58l-5-19.64,6.24-1.2,3.88,18.53,2.16,8.88h.53l2.55-8.88,3.5-13-1.1-4.37,6.33-1.2,3.79,18.53Z"/><path class="cls-1" d="M186.25,32.26a6.93,6.93,0,0,0,2.93-.72,11.46,11.46,0,0,0,2.4-1.44l.86-.72,2.21,2.68a10.87,10.87,0,0,1-1.49,1.88,15.13,15.13,0,0,1-2,1.8,11.19,11.19,0,0,1-2.73,1.34,10.6,10.6,0,0,1-3.53.6,7.85,7.85,0,0,1-6.34-3,11.55,11.55,0,0,1-2.45-7.61,16.35,16.35,0,0,1,3.41-10.27q3.41-4.43,8-4.42a7.34,7.34,0,0,1,5.45,2,7.53,7.53,0,0,1,1.94,5.52,18.76,18.76,0,0,1-.72,4.8l-1,1-12,1.1C181.71,30.45,183.4,32.26,186.25,32.26Zm0-14.88a4.45,4.45,0,0,0-3.55,1.7A7.61,7.61,0,0,0,181,23.42l8.16-1a15.89,15.89,0,0,0,.14-1.83Q189.32,17.38,186.25,17.38Z"/><path class="cls-1" d="M198,35.35a6.83,6.83,0,0,1,1-10.13A10.51,10.51,0,0,1,205.74,23H209v-.81A4.25,4.25,0,0,0,208,19c-.64-.58-1.84-.86-3.6-.86a9.28,9.28,0,0,0-2.61.45A21.21,21.21,0,0,0,198.44,20l-1.39-3.79a24,24,0,0,1,5-2.6,14.2,14.2,0,0,1,4.87-1.15q7.53,0,7.53,7.3v9.41a13.49,13.49,0,0,0,1.68,6l-5.08,2.16a26.32,26.32,0,0,1-1.78-4.13q-2.64,4-6.67,4A6.26,6.26,0,0,1,198,35.35Zm6.64-3.09a7.36,7.36,0,0,0,4.37-2V27.07a19.8,19.8,0,0,0-4.13-.57c-2,0-3,.89-3,2.68a3.16,3.16,0,0,0,.77,2.24A2.59,2.59,0,0,0,204.63,32.26Z"/><path class="cls-1" d="M227.29,31.15h.62l1.59-6.57,2.59-11.86,5.95.72-3.6,11.9-3,11.24-8.21.72-2.83-11.67L216.92,14l6.53-1.2,2.06,10.56Z"/><path class="cls-1" d="M248.65,32.26a6.93,6.93,0,0,0,2.93-.72A11.46,11.46,0,0,0,254,30.1l.86-.72,2.21,2.68a10.87,10.87,0,0,1-1.49,1.88,15.13,15.13,0,0,1-2,1.8,11.1,11.1,0,0,1-2.74,1.34,10.5,10.5,0,0,1-3.52.6,7.84,7.84,0,0,1-6.34-3,11.55,11.55,0,0,1-2.45-7.61,16.35,16.35,0,0,1,3.41-10.27q3.41-4.43,8-4.42a7.34,7.34,0,0,1,5.45,2,7.53,7.53,0,0,1,1.94,5.52,18.76,18.76,0,0,1-.72,4.8l-1,1-12,1.1Q244.37,32.26,248.65,32.26Zm0-14.88a4.45,4.45,0,0,0-3.55,1.7,7.61,7.61,0,0,0-1.68,4.34l8.16-1a15.89,15.89,0,0,0,.14-1.83Q251.72,17.38,248.65,17.38Z"/><path class="cls-1" d="M259.69,14l5.81-1.25c.28,2.46.48,4.8.57,7Q270.44,13,274.28,13l-.53,7.49a15.47,15.47,0,0,0-4.39.5,9.34,9.34,0,0,0-3.29,2v1.73L266.6,36l-6.43,1.2.57-11.66A84,84,0,0,0,259.69,14Z"/><path class="cls-2" d="M23.41,17.21V37.86a.68.68,0,0,0,1.24.39c2.45-3.5,8.48-11,17.44-14.84a.68.68,0,0,0,.41-.62V2.87a.67.67,0,0,0-.88-.65c-3.06,1-13.27,5-18.14,14.67A.71.71,0,0,0,23.41,17.21Z"/><path class="cls-2" d="M19.1,17.21V37.86a.68.68,0,0,1-1.24.39c-2.45-3.5-8.48-11-17.45-14.84A.68.68,0,0,1,0,22.79V2.87a.68.68,0,0,1,.89-.65C4,3.22,14.15,7.19,19,16.89A.72.72,0,0,1,19.1,17.21Z"/></g></g></svg>