<svg xmlns="http://www.w3.org/2000/svg" viewBox="0 0 215.18 37.68"><defs><style>.cls-1{fill:#f8f4ea;}</style></defs><g id="Layer_2" data-name="Layer 2"><g id="Layer_1-2" data-name="Layer 1"><path class="cls-1" d="M0,9.55.53,4h22.8L22.8,9.55l-8.35-.72-.19,15.84.57,12.48H8.11l.58-11.66L8.5,8.88Z"/><path class="cls-1" d="M25.08,35.35a6.54,6.54,0,0,1-1.8-4.85,6.63,6.63,0,0,1,2.78-5.28A10.53,10.53,0,0,1,32.83,23H36.1v-.81a4.25,4.25,0,0,0-1-3.22c-.64-.58-1.85-.86-3.6-.86a9.4,9.4,0,0,0-2.62.45A20.76,20.76,0,0,0,25.54,20l-1.4-3.79a24.21,24.21,0,0,1,5-2.6A14.25,14.25,0,0,1,34,12.43q7.55,0,7.54,7.3v9.41a13.49,13.49,0,0,0,1.68,6L38.16,37.3a27.3,27.3,0,0,1-1.78-4.13q-2.64,4-6.67,4A6.26,6.26,0,0,1,25.08,35.35Zm6.65-3.09a7.39,7.39,0,0,0,4.37-2V27.07A19.89,19.89,0,0,0,32,26.5c-2,0-3,.89-3,2.68a3.21,3.21,0,0,0,.77,2.24A2.61,2.61,0,0,0,31.73,32.26Z"/><path class="cls-1" d="M52.8,0l-.62,24.67L52.7,36l-6.48,1.2.58-11.66L46.22,1.2Z"/><path class="cls-1" d="M65.81,32.26a6.88,6.88,0,0,0,2.92-.72,11,11,0,0,0,2.4-1.44l.87-.72,2.21,2.68a10.87,10.87,0,0,1-1.49,1.88,15.13,15.13,0,0,1-2,1.8,11.1,11.1,0,0,1-2.74,1.34,10.5,10.5,0,0,1-3.52.6,7.84,7.84,0,0,1-6.34-3,11.55,11.55,0,0,1-2.45-7.61A16.35,16.35,0,0,1,59,16.85q3.41-4.43,8-4.42a7.3,7.3,0,0,1,5.44,2,7.5,7.5,0,0,1,2,5.52,18.76,18.76,0,0,1-.72,4.8l-1,1-12,1.1Q61.53,32.26,65.81,32.26Zm0-14.88a4.47,4.47,0,0,0-3.56,1.7,7.61,7.61,0,0,0-1.68,4.34l8.16-1a14.17,14.17,0,0,0,.15-1.83C68.88,18.45,67.85,17.38,65.81,17.38Z"/><path class="cls-1" d="M105.36,31.15h.53l2.25-8.25,4.61-19.16,5.43.87-5.24,19.05-3.21,13.11-8.79.62L98.21,24.58l-1.63-6.34-1.44,5.42L91.92,36.77l-8.64.62L80.4,24.58l-5-19.64,6.24-1.2,3.89,18.53,2.16,8.88h.52l2.55-8.88,3.5-13-1.1-4.37,6.33-1.2,3.8,18.53Z"/><path class="cls-1" d="M127.15,32.26a6.93,6.93,0,0,0,2.93-.72,11.46,11.46,0,0,0,2.4-1.44l.86-.72,2.21,2.68a10.87,10.87,0,0,1-1.49,1.88,15.13,15.13,0,0,1-2,1.8,11.19,11.19,0,0,1-2.73,1.34,10.6,10.6,0,0,1-3.53.6,7.85,7.85,0,0,1-6.34-3A11.55,11.55,0,0,1,117,27.12a16.35,16.35,0,0,1,3.41-10.27q3.41-4.43,8-4.42a7.33,7.33,0,0,1,5.45,2,7.53,7.53,0,0,1,1.94,5.52,18.76,18.76,0,0,1-.72,4.8l-1,1-12,1.1C122.61,30.45,124.3,32.26,127.15,32.26Zm0-14.88a4.45,4.45,0,0,0-3.55,1.7,7.61,7.61,0,0,0-1.68,4.34l8.16-1a15.89,15.89,0,0,0,.14-1.83Q130.22,17.38,127.15,17.38Z"/><path class="cls-1" d="M138.89,35.35a6.83,6.83,0,0,1,1-10.13A10.53,10.53,0,0,1,146.64,23h3.26v-.81a4.25,4.25,0,0,0-1-3.22c-.64-.58-1.84-.86-3.6-.86a9.33,9.33,0,0,0-2.61.45A21.21,21.21,0,0,0,139.34,20L138,16.18a24.21,24.21,0,0,1,5-2.6,14.2,14.2,0,0,1,4.87-1.15q7.53,0,7.53,7.3v9.41a13.49,13.49,0,0,0,1.68,6L152,37.3a26.32,26.32,0,0,1-1.78-4.13q-2.64,4-6.67,4A6.26,6.26,0,0,1,138.89,35.35Zm6.64-3.09a7.36,7.36,0,0,0,4.37-2V27.07a19.72,19.72,0,0,0-4.13-.57c-2,0-3,.89-3,2.68a3.21,3.21,0,0,0,.77,2.24A2.59,2.59,0,0,0,145.53,32.26Z"/><path class="cls-1" d="M168.19,31.15h.62l1.59-6.57L173,12.72l5.95.72-3.6,11.9-3,11.24-8.21.72-2.83-11.67L157.82,14l6.53-1.2,2.06,10.56Z"/><path class="cls-1" d="M189.55,32.26a6.93,6.93,0,0,0,2.93-.72,11.46,11.46,0,0,0,2.4-1.44l.86-.72L198,32.06a10.87,10.87,0,0,1-1.49,1.88,15.13,15.13,0,0,1-2,1.8,11.19,11.19,0,0,1-2.73,1.34,10.6,10.6,0,0,1-3.53.6,7.85,7.85,0,0,1-6.34-3,11.55,11.55,0,0,1-2.45-7.61,16.35,16.35,0,0,1,3.41-10.27q3.41-4.43,8-4.42a7.34,7.34,0,0,1,5.45,2,7.53,7.53,0,0,1,1.94,5.52,18.76,18.76,0,0,1-.72,4.8l-1,1-12,1.1C185,30.45,186.7,32.26,189.55,32.26Zm0-14.88a4.45,4.45,0,0,0-3.55,1.7,7.61,7.61,0,0,0-1.68,4.34l8.16-1a15.89,15.89,0,0,0,.14-1.83Q192.62,17.38,189.55,17.38Z"/><path class="cls-1" d="M200.59,14l5.81-1.25q.43,3.69.57,7Q211.33,13,215.18,13l-.53,7.49a15.47,15.47,0,0,0-4.39.5,9.34,9.34,0,0,0-3.29,2v1.73L207.5,36l-6.43,1.2.58-11.66A85.52,85.52,0,0,0,200.59,14Z"/></g></g></svg>